<svg width="1200" height="630" viewBox="0 0 1200 630" fill="none" xmlns="http://www.w3.org/2000/svg" role="img" aria-label="LaunchMind AI social preview">
  <rect width="1200" height="630" fill="#080808"/>
  <path d="M0 0H1200V630H0V0Z" fill="url(#grid)"/>
  <rect x="96" y="88" width="1008" height="454" rx="28" fill="#111111" stroke="rgba(255,255,255,0.12)"/>
  <rect x="138" y="132" width="178" height="42" rx="21" fill="#D4AF37" fill-opacity="0.16" stroke="#D4AF37" stroke-opacity="0.35"/>
  <text x="166" y="159" fill="#D4AF37" font-family="Inter, Arial, sans-serif" font-size="18" font-weight="700">LaunchMind AI</text>
  <text x="138" y="250" fill="#F5F5F5" font-family="Inter, Arial, sans-serif" font-size="70" font-weight="800" letter-spacing="-3">AI tools for startup</text>
  <text x="138" y="330" fill="#F5F5F5" font-family="Inter, Arial, sans-serif" font-size="70" font-weight="800" letter-spacing="-3">and career planning</text>
  <text x="140" y="395" fill="#A3A3A3" font-family="Inter, Arial, sans-serif" font-size="28">Generate startup ideas, business names, resumes,</text>
  <text x="140" y="435" fill="#A3A3A3" font-family="Inter, Arial, sans-serif" font-size="28">cover letters, feasibility reports, and MVP plans.</text>
  <g transform="translate(820 170)">
    <rect width="210" height="252" rx="20" fill="#171717" stroke="rgba(212,175,55,0.28)"/>
    <rect x="28" y="32" width="112" height="14" rx="7" fill="#D4AF37"/>
    <rect x="28" y="68" width="154" height="10" rx="5" fill="#F5F5F5" fill-opacity="0.82"/>
    <rect x="28" y="94" width="134" height="10" rx="5" fill="#A3A3A3" fill-opacity="0.65"/>
    <rect x="28" y="132" width="154" height="46" rx="12" fill="#111111" stroke="rgba(255,255,255,0.1)"/>
    <rect x="44" y="150" width="96" height="9" rx="4.5" fill="#A3A3A3"/>
    <rect x="28" y="194" width="154" height="28" rx="14" fill="#D4AF37"/>
  </g>
  <defs>
    <pattern id="grid" width="72" height="72" patternUnits="userSpaceOnUse">
      <path d="M72 0H0V72" stroke="white" stroke-opacity="0.045"/>
    </pattern>
  </defs>
</svg>
